<svg xmlns="http://www.w3.org/2000/svg" height="2048" preserveAspectRatio="none" style="display: block;" version="1.1" viewBox="0 0 2048 2048" width="2048">
<defs>
	<linearGradient gradientUnits="userSpaceOnUse" id="Gradient1" x1="1122.45" x2="793.059" y1="369.856" y2="1458.63">
		<stop class="stop0" offset="0" stop-color="rgb(63,62,178)" stop-opacity="1"></stop>
		<stop class="stop1" offset="1" stop-color="rgb(126,173,255)" stop-opacity="1"></stop>
	</linearGradient>
</defs>

<path d="M 818.787 425.112 C 839.865 471.139 870.952 491.177 919.957 501.367 C 1026.87 451.397 1142.94 446.369 1249.62 501.398 C 1294.44 491.775 1333.16 470.292 1350.6 425.36 C 1373.24 473.594 1375.48 519.297 1341.46 563.134 C 1409.87 619.215 1457.26 699.521 1466.07 788.246 C 1471 835.029 1465.96 882.325 1451.29 927.018 C 1548.33 986.465 1622.43 1162.18 1647.15 1268.9 C 1655.2 1303.64 1669.85 1376.78 1651.36 1409.83 C 1647.82 1416.17 1640.49 1423.03 1633 1424.61 C 1624.01 1426.5 1615.57 1423.42 1608.06 1418.48 C 1605.82 1417 1603.55 1415.2 1601.45 1413.56 C 1618.66 1483.91 1556.05 1482.27 1535.94 1424.32 C 1532.01 1431 1526.73 1437.95 1518.89 1439.65 C 1483.58 1447.3 1474.34 1397.7 1469.84 1375.61 L 1468.64 1369.59 C 1458.66 1388.81 1438.17 1407.08 1420.07 1385.01 C 1358.87 1459.28 1299.11 1500.17 1205.89 1526.5 L 1205.92 1562.14 C 1226.85 1567.95 1268.13 1578.19 1281.7 1597.31 C 1286.4 1603.92 1284.45 1620.78 1274.82 1623.07 C 1246.64 1634.77 1211.82 1611.61 1185.96 1611.22 C 1161.13 1610.84 1125.54 1634.85 1098.32 1623.25 C 1093.62 1621.25 1091.69 1617.17 1088.69 1613.24 C 1083.46 1615.88 1085.89 1622.01 1075.63 1624.43 C 1049.58 1630.58 1024.1 1616.72 998.955 1612.16 C 968.157 1607.52 932.366 1636.52 901.224 1622.37 C 891.366 1617.89 889.46 1603.18 896.007 1595.54 C 911.118 1577.88 950.206 1567.03 972.093 1561.9 L 971.915 1528.66 C 870.132 1504.89 781.87 1441.85 726.367 1353.28 C 676.759 1274.05 661.504 1189.1 670.383 1097.07 C 544.034 1040.01 451.668 907.387 400.531 782.354 C 391.852 761.133 373.103 709.3 404.221 698.111 C 414.141 694.543 426.752 697.885 435.856 702.562 C 436.51 702.9 437.159 703.248 437.802 703.607 C 427.216 687.187 409.055 659.896 414.821 640.596 C 424.125 609.458 456.987 620.527 475.046 634.044 C 454.423 574.031 508.187 568.806 537.286 609.505 C 552.576 630.89 568.952 650.458 582.176 673.659 C 586.621 652.471 592.219 629.761 610.778 616.552 C 624.393 606.863 642.397 615.647 642.993 632.16 C 643.28 640.11 643.325 647.695 643.007 655.639 C 642.797 673.443 642.19 699.229 646.76 716.232 C 653.152 740.012 669.669 767.054 681.039 789.156 C 684.24 795.379 690.715 805.945 692.722 811.907 C 693.966 814.056 693.35 813.419 695.489 814.789 L 696.131 812.155 C 702.734 717.557 742.013 639.09 813.156 575.555 C 817.641 571.55 823.385 566.912 828.259 563.379 C 794.568 519.924 796.085 473.108 818.787 425.112 z" fill="rgb(26,26,46)" transform="translate(0,0)"></path>
<path d="M 818.568 437.269 C 839.959 477.284 876.538 500.608 921.347 506.616 C 942.042 496.304 957.66 489.922 979.725 483.114 C 1068.76 455.617 1165.03 464.159 1247.83 506.903 C 1254.47 505.939 1261.05 504.568 1267.52 502.798 C 1306.38 492.413 1331.1 471.187 1350.87 437.352 C 1369.34 481.771 1365.77 526.462 1333.9 563.549 C 1382.34 603.83 1415.95 645.641 1439.93 704.845 C 1446.7 721.548 1454.44 745.139 1456.84 763.163 C 1468.3 817.261 1462.14 870.088 1447.76 922.805 L 1445.99 924.251 C 1439.54 923.424 1438.21 919.476 1434.91 920.472 C 1435.06 926.709 1447.29 946.156 1450.64 952.728 C 1540.87 1129.81 1493.55 1353.88 1325.93 1466.68 C 1318.44 1471.71 1310.48 1476.95 1302.31 1480.81 C 1352.21 1412.68 1374.44 1339.36 1361.43 1254.58 C 1349.29 1177.99 1307.34 1109.32 1244.73 1063.57 C 1228.21 1051.5 1205.13 1037.98 1185.82 1030.14 C 1185.71 1017.41 1186.72 983.824 1184.24 973.282 C 1179.45 952.963 1116.15 994.036 1105.91 998.827 C 1091.21 991.416 1080.86 990.046 1066.32 999.011 C 1056.72 993.958 1046.72 988.182 1036.73 983.382 C 1024.76 977.625 1007.11 964.439 993.779 967.644 C 984.723 969.822 986.755 985.653 986.345 992.523 C 986.324 1004.99 986.62 1017.73 986.8 1030.29 C 913.062 1062.44 857.291 1116.94 827.65 1192.38 C 798.681 1265.43 800.14 1347.04 831.704 1419.01 C 841.916 1442.47 855.332 1464.4 871.568 1484.17 C 727.735 1398.12 661.523 1266 675.435 1099.4 C 690.125 1105.11 740.908 1122.86 752.476 1119.2 L 751.118 1119.78 L 751.807 1117.95 C 744.119 1112.03 735.517 1112.47 726.458 1110.32 C 716.496 1107.96 706.623 1105.05 696.958 1101.68 C 679.742 1095.59 663.02 1088.19 646.939 1079.53 C 548.821 1026.68 471.912 920.221 423.541 822.15 C 410.683 796.08 398.216 764.803 392.865 736.25 C 390.349 722.824 393.395 704.095 409.973 702.147 C 421.827 700.755 432.508 705.74 441.581 712.899 C 448.498 717.947 454.813 730.683 459.956 731.595 C 460.835 726.843 458.149 723.287 455.562 719.487 C 442.961 700.978 415.014 667.04 419.357 643.933 C 420.555 637.564 424.42 632.568 429.765 629.039 C 435.635 625.163 442.377 624.145 449.18 625.886 C 482.564 634.429 496.3 680.739 507.999 684.947 L 509.796 683.562 C 499.197 659.883 466.713 627.659 477.334 600.122 C 479.074 595.61 482.107 591.891 486.608 589.952 C 493.459 587.001 501.591 588.621 508.142 591.573 C 535.045 603.695 567.149 662.305 585.574 687.738 C 589.243 664.668 593.364 638.512 611.848 621.988 C 617.857 616.616 632.388 616.562 635.106 624.344 C 641.487 642.61 635.159 666.467 637.736 685.953 C 639.439 700.668 639.079 711.858 643.883 725.569 C 648.244 737.915 654.194 750.335 660.321 761.922 C 695.461 828.378 731.806 894.205 767.053 960.611 C 771.216 968.454 800.084 1024.72 804.878 1027.53 L 806.548 1026.96 C 808.621 1017.61 709.584 850.286 701.574 825.665 C 699.349 818.823 701.471 808.503 702.115 801.462 C 702.291 799.449 702.496 797.439 702.73 795.432 C 713.9 699.457 760.332 623.494 835.249 564.087 C 804.451 522.552 799.653 485.959 818.568 437.269 z" fill="url(#Gradient1)" transform="translate(0,0)"></path>
<path d="M 762.857 795.949 C 761.31 773.914 761.68 755.168 766.915 733.534 C 778.029 687.809 806.685 648.292 846.693 623.519 C 886.067 599.536 933.414 592.344 978.134 603.553 C 1021.83 614.764 1059.34 642.77 1082.5 681.484 C 1117.02 631.951 1163.97 599.642 1226 598.689 C 1272.14 597.577 1316.74 615.26 1349.58 647.678 C 1386.43 683.6 1402.56 727.437 1403.19 778.209 C 1400.26 829.366 1380.61 874.421 1341.89 908.742 C 1306.66 940.259 1260.16 956.162 1213.01 952.825 C 1174.13 949.945 1137.26 934.405 1108.05 908.584 C 1099.4 922.32 1091.08 936.263 1083.1 950.403 C 1074.5 936.693 1066.16 922.819 1058.1 908.787 C 1017.81 941.92 974.543 957.469 921.882 952.271 C 875.292 947.476 832.427 924.644 802.454 888.656 C 778.092 858.924 769.203 833.025 762.857 795.949 z" fill="rgb(26,26,46)" transform="translate(0,0)"></path>
<path d="M 933.774 603.441 C 1001.9 603.384 1048.03 636.69 1083.31 692.506 C 1086.33 686.645 1089.71 680.977 1093.44 675.537 C 1117.25 640.421 1157.85 614.176 1199.51 606.413 C 1242.89 598.283 1287.71 608.037 1323.78 633.456 C 1360.43 658.735 1387.35 699.6 1395.07 743.505 C 1402.94 789.328 1392.28 836.398 1365.45 874.367 C 1339.02 912.347 1298.39 938.051 1252.75 945.654 C 1205.27 953.485 1160.59 940.918 1121.79 913.224 C 1118.15 910.401 1114.4 907.029 1110.87 903.998 C 1118.67 890.536 1140.9 856.597 1145.77 843.994 C 1149.55 834.176 1149.09 823.235 1144.52 813.764 C 1137.14 798.783 1118.31 788.774 1101.85 789.061 C 1083.53 789.38 1056.85 785.937 1040.4 795.506 C 992.227 823.524 1037.14 871.595 1054.88 904.196 C 1027.38 929.993 986.691 945.563 949.23 947.535 C 903.023 949.918 857.772 933.795 823.482 902.732 C 789.637 871.897 769.483 828.84 767.486 783.099 C 765.619 737.603 781.606 693.18 812.036 659.308 C 845.463 622.741 884.953 605.842 933.774 603.441 z" fill="rgb(255,255,255)" transform="translate(0,0)"></path>
<path d="M 1219.18 684.173 C 1266.44 677.762 1309.96 710.855 1316.4 758.109 C 1322.85 805.362 1289.79 848.9 1242.54 855.38 C 1195.24 861.866 1151.65 828.763 1145.2 781.461 C 1138.74 734.16 1171.88 690.591 1219.18 684.173 z" fill="rgb(26,26,46)" transform="translate(0,0)"></path>
<path d="M 1222.01 689.029 C 1266.51 684.27 1306.46 716.446 1311.3 760.94 C 1316.13 805.434 1284.02 845.439 1239.54 850.349 C 1194.94 855.27 1154.82 823.068 1149.98 778.467 C 1145.13 733.867 1177.4 693.799 1222.01 689.029 z" fill="rgb(255,255,255)" transform="translate(0,0)"></path>
<path d="M 1220.53 701.316 C 1242.91 699.74 1264.79 708.187 1278.83 725.951 C 1290.21 740.19 1295.34 758.424 1293.05 776.503 C 1290.73 794.586 1281.27 810.987 1266.77 822.038 C 1250.5 834.511 1233.15 837.328 1213.32 834.714 C 1175.78 825.379 1158.6 798.846 1159.01 761.276 C 1166.52 765.089 1173.06 766.929 1181.24 763.401 C 1186.27 761.284 1190.17 757.157 1192.02 752.023 C 1193.78 747.134 1193.43 741.73 1191.05 737.108 C 1187.05 729.244 1181.65 727.403 1174.01 725.164 C 1189.44 709.492 1198.62 704.406 1220.53 701.316 z" fill="rgb(26,26,46)" transform="translate(0,0)"></path>
<path d="M 927.239 684.335 C 974.613 678.429 1017.74 712.206 1023.37 759.615 C 1028.99 807.024 994.95 849.951 947.508 855.287 C 900.468 860.578 857.983 826.892 852.41 779.885 C 846.836 732.877 880.266 690.191 927.239 684.335 z" fill="rgb(26,26,46)" transform="translate(0,0)"></path>
<path d="M 930.753 689.31 C 975.305 685.32 1014.61 718.303 1018.42 762.871 C 1022.23 807.439 989.083 846.612 944.5 850.236 C 900.174 853.839 861.278 820.928 857.493 776.618 C 853.707 732.308 886.459 693.277 930.753 689.31 z" fill="rgb(255,255,255)" transform="translate(0,0)"></path>
<path d="M 933.491 701.336 C 955.444 699.886 977.425 708.686 991.099 726.118 C 1002.49 740.485 1007.6 758.837 1005.28 777.022 C 1003.13 794.763 993.969 810.905 979.84 821.846 C 962.858 834.822 945.065 837.521 924.464 834.647 C 887.207 824.177 870.49 798.946 870.567 761.009 C 872.027 761.733 873.513 762.403 875.021 763.019 C 881.495 765.615 887.665 766.141 894.146 763.08 C 899 760.804 902.69 756.612 904.331 751.508 C 905.905 746.598 905.351 741.253 902.803 736.77 C 898.561 729.285 892.791 727.422 885.211 725.356 C 900.944 710.108 911.492 703.993 933.491 701.336 z" fill="rgb(26,26,46)" transform="translate(0,0)"></path>
<path d="M 1064.43 794.455 C 1092.14 794.344 1134.13 788.259 1142.12 824.006 C 1143.42 829.748 1143.04 835.746 1141.02 841.275 C 1137.93 849.761 1127.01 866.752 1121.92 875.119 L 1090.93 926.425 L 1082.68 939.963 C 1071.34 920.651 1026.13 850.359 1024.06 835.271 C 1022.78 825.945 1025.43 816.967 1031.42 809.729 C 1040.01 799.344 1051.47 795.529 1064.43 794.455 z" fill="rgb(246,171,74)" transform="translate(0,0)"></path>
<path d="M 1185.7 1035.94 C 1257.68 1068.21 1312.08 1123.59 1340.64 1197.51 C 1367.86 1268.79 1365.55 1347.98 1334.22 1417.54 C 1325.08 1437.92 1302.95 1476.67 1285.63 1490.04 C 1279.22 1494.99 1250.09 1506.24 1241.25 1509.61 C 1141.42 1548.01 1007.82 1544.96 910.243 1502.74 C 903.967 1500.02 889.472 1494.19 884.806 1490.09 C 864.807 1472.5 843.96 1434.77 834.095 1410.84 C 804.986 1339.95 805.169 1260.41 834.604 1189.66 C 862.642 1123.15 917.606 1064.2 985.023 1037.02 C 991.496 1042.68 976.213 1090.5 1004.8 1078.85 C 1024.64 1070.76 1047.38 1057.5 1066.5 1047.46 C 1080.55 1055.65 1090.97 1054.85 1104.8 1046.93 C 1121.71 1055.81 1138.61 1065.11 1155.59 1073.87 C 1192.89 1093.11 1185.96 1060.01 1185.7 1035.94 z" fill="rgb(255,255,255)" transform="translate(0,0)"></path>
<path d="M 1445.48 930.632 C 1451.67 933.237 1457.27 936.963 1462.71 940.866 C 1555.54 1007.46 1631.72 1199.05 1649.83 1308.78 C 1654.41 1336.55 1661.85 1387.07 1644.39 1410.33 C 1640.75 1415.18 1635.56 1419.01 1629.43 1419.8 C 1616.5 1421.46 1602.61 1409.18 1597.2 1398.25 C 1593.83 1391.43 1592.48 1379.22 1586.5 1374.79 L 1584.82 1375.19 C 1583.42 1378.96 1596.21 1414.57 1597.91 1420.75 C 1606.08 1450.56 1588.82 1475.2 1559.9 1453.13 C 1542.24 1435.04 1539.37 1417.63 1532.62 1394.4 C 1531.4 1390.18 1531.32 1390.18 1528.43 1388.79 C 1523.74 1391.56 1535.84 1413.42 1528.71 1424.18 C 1527.7 1427.6 1521.4 1434.55 1517.47 1434.96 C 1481.23 1438.69 1477.04 1380.98 1472.05 1356.3 C 1471.42 1353.17 1471.18 1353.05 1469.27 1352.04 C 1466.73 1354.32 1467.31 1354.93 1466.43 1358.39 C 1461.15 1379.31 1443.7 1401.45 1423.25 1380.96 C 1448.63 1346.57 1468.31 1308.31 1481.52 1267.66 C 1508.82 1180.99 1507.31 1087.81 1477.22 1002.07 C 1467.45 974.06 1458.75 956.622 1445.48 930.632 z" fill="rgb(102,126,234)" transform="translate(0,0)"></path>
<path d="M 1198.57 1528.16 L 1199.37 1528.22 C 1201.77 1530.86 1200.4 1560 1200.31 1565.9 C 1215.48 1570.14 1276.94 1586.44 1278.67 1604.03 C 1282.11 1638.95 1209.49 1608.96 1194.11 1606.91 C 1186.86 1605.94 1183.5 1605.9 1175.9 1606.7 C 1158.29 1610.78 1100.55 1634.45 1093.52 1609.64 C 1086.93 1586.4 1156.77 1569.93 1171.75 1565.84 C 1171.76 1555.18 1171.58 1544.53 1171.21 1533.88 C 1180.74 1532.27 1189.18 1530.34 1198.57 1528.16 z" fill="rgb(246,171,74)" transform="translate(0,0)"></path>
<path d="M 977.171 1529.84 C 986.49 1532.03 996.46 1533.84 1005.89 1535.71 C 1005.84 1545.78 1005.67 1555.85 1005.38 1565.92 C 1006.94 1566.31 1008.5 1566.7 1010.06 1567.1 C 1025.85 1571.21 1076.96 1586.17 1081.64 1599.81 C 1095.32 1639.64 1015.23 1610.81 1003.23 1607.26 C 984.289 1603.87 972.094 1609.45 954.932 1614.4 C 945.038 1617.26 915.543 1625 906.149 1618.82 C 866.903 1593 966.273 1568.86 977.144 1565.83 L 977.171 1529.84 z" fill="rgb(246,171,74)" transform="translate(0,0)"></path>
<path d="M 1163.54 1535.32 C 1165.14 1535.09 1164.3 1534.97 1165.98 1536.09 C 1166.92 1542.64 1166.32 1554.91 1166.18 1561.95 C 1139.17 1568.29 1105.63 1577.94 1087.75 1599.51 L 1088.03 1600.05 C 1079.88 1583.24 1056.62 1576.76 1039.89 1570.48 C 1030.24 1567.37 1020.52 1564.53 1010.72 1561.95 C 1010.93 1553.39 1010.76 1545.13 1010.6 1536.58 C 1065.71 1543.73 1108.3 1544.09 1163.54 1535.32 z" fill="rgb(255,255,255)" transform="translate(0,0)"></path>
<path d="M 1171.67 970.837 C 1175.28 971.746 1176.74 972.155 1179.03 975.017 C 1182.42 984.093 1180.19 1057.81 1178.35 1070.53 C 1176.56 1082.95 1139.93 1059.3 1131.43 1054.71 L 1108.95 1043.2 C 1119.62 1029.04 1117.78 1017.13 1109.47 1002.67 C 1129.11 993.625 1151.98 980.978 1171.67 970.837 z" fill="rgb(245,87,108)" transform="translate(0,0)"></path>
<path d="M 997.882 970.744 C 1004.99 971.833 1052.81 998.056 1062.05 1003.14 C 1051.94 1018.1 1051.86 1028.66 1062.37 1043.42 L 1042.55 1053.76 C 1033.48 1058.59 1001.39 1078.66 994.062 1072.66 C 989.822 1060.09 992.425 997.178 992.382 980.328 C 992.368 974.972 994.412 973.543 997.882 970.744 z" fill="rgb(245,87,108)" transform="translate(0,0)"></path>
<path d="M 1082.63 998.178 C 1096.43 996.53 1108.96 1006.39 1110.59 1020.2 C 1112.22 1034.01 1102.35 1046.52 1088.54 1048.14 C 1074.75 1049.76 1062.26 1039.9 1060.63 1026.11 C 1059 1012.32 1068.84 999.823 1082.63 998.178 z" fill="rgb(245,87,108)" transform="translate(0,0)"></path>
<metadata><recraft-signature>{"signed_by": "recraft", "signature_b64": "M9BDz67cpcgUagrc6c7cS5g/XonbgXavct5tVoqZoD5ymoV3RkqK06X9Ue9AcGowi9mo7rajhu4lpZRlHwIYAg==", "signing_algo": "Ed25519", "generation_timestamp": 1784933654, "identifier": "11b9aced-c031-4739-b99a-73376809fe75"}</recraft-signature></metadata></svg>
